<svg width="162" height="32" viewBox="0 0 162 32" fill="none" xmlns="http://www.w3.org/2000/svg">
<path d="M17.0387 11.1973C17.3344 11.2481 17.5494 11.5023 17.5494 11.7979V18.1077L15.3518 17.8028C15.0491 17.7612 14.825 17.5048 14.825 17.2V10.8255L17.0387 11.1973Z" fill="white"/>
<path fill-rule="evenodd" clip-rule="evenodd" d="M29.7114 0.695648C30.8021 0.695648 31.6896 1.57327 31.6896 2.66108V26.4777C31.6896 27.4754 30.9362 28.3161 29.9379 28.4316L2.55442 31.5889C1.37825 31.7251 0.347656 30.8127 0.347656 29.6348V2.66108C0.347676 1.57792 1.23498 0.695694 2.32565 0.695648H29.7114ZM22.883 7.33565L15.3473 8.38424C15.0446 8.42582 14.8203 8.68223 14.8203 8.9871V10.8255L9.55644 9.94087C9.18208 9.87851 8.84227 10.165 8.84227 10.5415V24.0872C8.84228 24.466 9.18208 24.75 9.55644 24.6876L17.0364 23.4337C17.3322 23.3828 17.5472 23.1286 17.5472 22.833V18.1077L22.8874 18.849C23.2571 18.8998 23.5853 18.6158 23.5853 18.2464H23.5809V7.93851C23.5809 7.56901 23.2504 7.2849 22.883 7.33565Z" fill="white"/>
<path fill-rule="evenodd" clip-rule="evenodd" d="M150.277 10.0052C150.991 10.0053 151.701 10.1043 152.451 10.2738L152.648 10.3177V14.2015L152.289 14.0335C151.582 13.7036 151.028 13.5336 150.61 13.5335C150.383 13.5335 150.234 13.5859 150.148 13.6497C150.072 13.7073 150.029 13.7863 150.029 13.8997C150.029 14.0728 150.123 14.2693 150.525 14.6722L151.668 15.7904C152.308 16.4062 152.78 16.9759 153.093 17.5814C153.407 18.1917 153.553 18.8275 153.553 19.5658C153.553 20.8884 153.094 21.9556 152.259 22.6888C151.427 23.4182 150.248 23.7933 148.849 23.7933C147.942 23.7933 146.986 23.6465 146.103 23.3519L145.931 23.2943V18.8519L146.324 19.1185C147.195 19.707 147.832 19.9797 148.42 19.9798C148.69 19.9798 148.872 19.9243 148.981 19.8441C149.078 19.7731 149.144 19.6629 149.144 19.4701C149.143 19.2097 148.993 18.9707 148.433 18.4105L148.428 18.4066L147.452 17.3831C146.344 16.2732 145.883 15.1881 145.883 13.8997C145.883 12.6725 146.305 11.6872 147.086 11.013C147.862 10.3434 148.964 10.0052 150.277 10.0052ZM153.3 19.5658L153.294 19.3236C153.294 19.321 153.293 19.3184 153.293 19.3158C153.297 19.3976 153.3 19.4809 153.3 19.5658Z" fill="white"/>
<path fill-rule="evenodd" clip-rule="evenodd" d="M78.1904 10.1956H80.5469V13.9144H78.1904V18.9701C78.1904 19.312 78.2757 19.4905 78.375 19.5863C78.4759 19.6834 78.6381 19.7415 78.8896 19.7415C79.2052 19.7415 79.6223 19.6565 80.0713 19.4544L80.4277 19.2943V23.3958L80.2471 23.4496C79.5816 23.6467 78.8192 23.7698 77.9854 23.7699C76.7236 23.7699 75.7162 23.4689 75.0283 22.7679C74.3419 22.068 74.0195 21.0147 74.0195 19.6126V13.9144H72.7578V11.2415L72.9316 11.1849C73.6315 10.9554 74.1113 10.6665 74.4414 10.2572C74.7719 9.84706 74.9762 9.28623 75.0684 8.46811L75.1396 7.84897L75.165 7.62534H78.1904V10.1956Z" fill="white"/>
<path fill-rule="evenodd" clip-rule="evenodd" d="M159.635 10.1956H161.991V13.9144H159.635V18.9701C159.635 19.312 159.72 19.4905 159.819 19.5863C159.92 19.6836 160.083 19.7415 160.335 19.7415C160.651 19.7415 161.068 19.6565 161.517 19.4544L161.873 19.2943V23.3958L161.691 23.4496C161.026 23.6467 160.264 23.7698 159.43 23.7699C158.168 23.7698 157.161 23.4688 156.474 22.7679C155.787 22.068 155.464 21.0148 155.464 19.6126V13.9144H154.203V11.2415L154.376 11.1849C155.076 10.9554 155.556 10.6665 155.886 10.2572C156.216 9.84704 156.421 9.28637 156.514 8.46811L156.585 7.84897L156.61 7.62534H159.635V10.1956Z" fill="white"/>
<path fill-rule="evenodd" clip-rule="evenodd" d="M105.664 18.3753C105.664 18.8493 105.78 19.1939 105.97 19.4164C106.154 19.6327 106.435 19.765 106.84 19.765C107.245 19.7649 107.549 19.6315 107.752 19.4095C107.957 19.1848 108.087 18.8409 108.087 18.3753V10.1956H112.258V23.6029H108.539V22.8148C107.767 23.452 106.833 23.7454 105.769 23.7455C104.462 23.7454 103.386 23.3145 102.637 22.5208C101.89 21.7289 101.493 20.6022 101.493 19.2562V10.1956H105.664V18.3753Z" fill="white"/>
<path fill-rule="evenodd" clip-rule="evenodd" d="M65.9629 10.0052C67.6942 10.0053 69.0921 10.4575 70.0576 11.3626C71.0254 12.2702 71.5233 13.6004 71.5234 15.2806V23.6029H67.6143V23.0531C66.9331 23.4926 66.0679 23.7219 65.1299 23.722C63.8809 23.722 62.806 23.2958 62.0439 22.5081C61.2826 21.7211 60.8545 20.5942 60.8545 19.2318C60.8547 17.8684 61.2896 16.747 62.0576 15.9662C62.8258 15.1856 63.9059 14.766 65.1533 14.766C65.9744 14.766 66.7128 14.9464 67.3506 15.2767C67.3445 14.7078 67.155 14.2871 66.8223 14.0033C66.4781 13.7098 65.9489 13.5336 65.2246 13.5335C64.1854 13.5336 63.1799 13.8964 62.418 14.3119L62.0449 14.516V10.7757L62.2061 10.7132C63.401 10.25 64.6936 10.0052 65.9629 10.0052ZM66.248 17.7943C65.8711 17.7944 65.5511 17.9319 65.3252 18.1624C65.0995 18.393 64.9533 18.7319 64.9531 19.1605C64.9531 20.007 65.5168 20.5509 66.248 20.5511C66.6242 20.5511 66.9306 20.4147 67.1436 20.1849C67.3575 19.9537 67.4961 19.6078 67.4961 19.1605C67.4959 18.7268 67.3586 18.3872 67.1445 18.1585C66.9313 17.931 66.6242 17.7943 66.248 17.7943ZM65.499 17.721C65.4715 17.7356 65.4454 17.7527 65.4189 17.7689C65.4533 17.7478 65.4884 17.7279 65.5244 17.7093L65.499 17.721Z" fill="white"/>
<path fill-rule="evenodd" clip-rule="evenodd" d="M47.6211 6.48276C49.4093 6.48288 50.8779 7.02283 51.8994 8.04428C52.9211 9.06592 53.4667 10.5408 53.4668 12.3529C53.4668 14.1763 52.9209 15.668 51.9004 16.7044C50.8793 17.7412 49.4109 18.2942 47.6211 18.2943H47.0635V23.6029H42.7021V6.48276H47.6211ZM47.0635 14.5287H47.2158C47.8865 14.5286 48.3564 14.35 48.6621 14.0247C48.9704 13.6964 49.1533 13.1744 49.1533 12.4007C49.1532 11.6398 48.971 11.1092 48.6602 10.7708C48.3528 10.4365 47.8821 10.2484 47.2158 10.2484H47.0635V14.5287Z" fill="white"/>
<path d="M59.1963 23.6029H55.0254V5.98276H59.1963V23.6029Z" fill="white"/>
<path d="M86.5479 23.6029H82.377V10.1956H86.5479V23.6029Z" fill="white"/>
<path fill-rule="evenodd" clip-rule="evenodd" d="M95.1475 10.0531C96.4301 10.0531 97.5173 10.478 98.2832 11.263C99.0484 12.0475 99.4706 13.1689 99.4707 14.5189V23.6029H95.2998V15.4232C95.2997 14.9445 95.1694 14.5946 94.9639 14.3675C94.7608 14.1436 94.4581 14.0102 94.0527 14.0101C93.6607 14.0101 93.3566 14.1427 93.1494 14.3685C92.9404 14.5967 92.8058 14.947 92.8057 15.4232V23.6029H88.6348V10.1956H92.377V10.9691C93.1321 10.3624 94.0648 10.0531 95.1475 10.0531Z" fill="white"/>
<path fill-rule="evenodd" clip-rule="evenodd" d="M127.27 10.0531C128.563 10.0531 129.645 10.4716 130.403 11.2552C131.16 12.038 131.569 13.1597 131.569 14.5189V23.6029H127.422V15.4232C127.422 14.939 127.3 14.5877 127.107 14.3617C126.919 14.1412 126.637 14.0101 126.246 14.0101C125.869 14.0101 125.585 14.1401 125.393 14.3626C125.196 14.5898 125.07 14.9417 125.07 15.4232V23.6029H120.899V15.4232C120.899 14.939 120.778 14.5877 120.585 14.3617C120.397 14.1413 120.114 14.0101 119.724 14.0101C119.333 14.0102 119.051 14.1413 118.862 14.3617C118.669 14.5877 118.548 14.9391 118.548 15.4232V23.6029H114.377V10.1956H118.12V10.9583C118.881 10.3285 119.776 10.0531 120.819 10.0531C122.158 10.0532 123.268 10.5061 124.018 11.3919C124.86 10.4909 125.965 10.0531 127.27 10.0531Z" fill="white"/>
<path d="M137.824 23.6029H133.653V5.98276H137.824V23.6029Z" fill="white"/>
<path d="M144.104 23.6029H139.935V10.1956H144.104V23.6029Z" fill="white"/>
<path fill-rule="evenodd" clip-rule="evenodd" d="M84.4619 4.88412C85.1516 4.88416 85.7473 5.08288 86.1729 5.46713C86.6012 5.854 86.8328 6.40798 86.833 7.06479C86.833 7.72391 86.5936 8.27749 86.1631 8.66342C85.7354 9.04661 85.1408 9.24542 84.4619 9.24545C83.7831 9.2454 83.1894 9.04652 82.7617 8.66342C82.3311 8.27748 82.0908 7.72407 82.0908 7.06479C82.091 6.40798 82.3236 5.854 82.752 5.46713C83.1774 5.08315 83.7725 4.88418 84.4619 4.88412Z" fill="white"/>
<path fill-rule="evenodd" clip-rule="evenodd" d="M142.02 4.88412C142.709 4.88416 143.305 5.08283 143.73 5.46713C144.159 5.854 144.39 6.40801 144.391 7.06479C144.391 7.72383 144.151 8.2775 143.721 8.66342C143.293 9.04661 142.698 9.24542 142.02 9.24545C141.341 9.24545 140.746 9.04665 140.318 8.66342C139.888 8.27749 139.648 7.72392 139.648 7.06479C139.649 6.40802 139.88 5.854 140.309 5.46713C140.734 5.08292 141.33 4.88413 142.02 4.88412Z" fill="white"/>
</svg>
