<svg version="1.2" xmlns="http://www.w3.org/2000/svg" viewBox="0 0 162 32" width="162" height="32"><style>.a{fill:#fff}</style><path fill-rule="evenodd" class="a" d="m159.6 0.5c1.1 0 2 0.9 2 2v23.9c0 1-0.8 1.9-1.8 2l-27.2 3.2c-1.2 0.1-2.2-0.8-2.2-2v-27.1c0-1.1 0.8-2 1.9-2zm-6.8 6.7l-7.5 1c-0.3 0.1-0.5 0.3-0.5 0.6v1.9l-5.3-0.9c-0.3-0.1-0.7 0.2-0.7 0.6v13.6c0 0.4 0.4 0.7 0.7 0.6l7.5-1.2c0.3-0.1 0.5-0.3 0.5-0.6v-4.8l5.3 0.8c0.4 0 0.7-0.3 0.7-0.6v-10.4c0-0.4-0.3-0.7-0.7-0.6zm-5.8 3.9c0.3 0 0.5 0.3 0.5 0.6v6.3l-2.2-0.3c-0.3 0-0.5-0.3-0.5-0.6v-6.4zm-68.5-1.2v8.8h2.5c2 0 2.6-1 2.6-3v-3.3h3.9v5.3c0 0.7 0.5 1.1 0.9 1.1 0.5 0 0.9-0.6 0.9-1.7v-4.7h4v5.3c0 0.7 0.5 1.1 1 1.1 0.4 0 0.8-0.3 0.8-1.1v-6.8h4v6.6c0 4.2-2.6 5.9-5.1 5.9q-2.8 0-3.8-1.7c-0.6 1-1.7 1.7-3 1.7-1.4 0-2.5-0.6-3-1.7-0.5 0.9-2.2 1.6-3.8 1.6h-2c-1.4 5.5-7 5.4-10 4.2v-4.3c2.3 1.3 5.6 1.6 6.1 0.1h-0.9c-3.8 0-6.4-3.1-6.4-6.7 0-3.7 2.6-6.7 6.1-6.7zm-4.9 4.6c-1.5 0-2.4 0.8-2.4 2.1 0 1.3 0.9 2.1 2.4 2.1h0.9v-4.2zm17.6 9.8c1.2 0 2.1 0.7 2.1 1.9 0 1.1-0.9 1.9-2.1 1.9-1.1 0-1.9-0.6-2-1.5-0.2 0.9-1 1.5-2 1.5-1.3 0-2.1-0.8-2.1-1.9 0-1.2 0.8-1.9 2.1-1.9 1.1 0 1.8 0.5 2 1.4 0.1-0.9 0.9-1.4 2-1.4zm23.4 0c1.2 0 2 0.7 2 1.9 0 1.1-0.8 1.9-2 1.9-1.3 0-2.1-0.8-2.1-1.9 0-1.2 0.8-1.9 2.1-1.9zm-71.9-6.9c0 4-2.7 6-5.3 6-1.5 0-3.1-0.7-3.9-1.7-0.4 1-1.5 1.7-2.6 1.7-1.3 0-2.5-0.7-2.9-1.7-0.4 0.9-1.6 1.7-2.9 1.7-1.2 0-2.4-0.7-2.8-1.7-0.5 1-1.7 1.7-2.9 1.7q-2.4 0-3.4-1.7c-1 1.1-2.3 1.6-7.2 1.6h-1.1c-5.7 0-9.1-5.4-6-11.7h4.6c-2.9 3.5-2 7.1 1.7 7.1h4.8c1.8 0 2.6-0.9 2.6-3v-4.9h4v6.8c0 0.7 0.3 1.2 1 1.2 0.8 0 1.2-0.7 1.2-1.7v-4.7h4v5.3c0 0.7 0.2 1.1 0.8 1.1 0.4 0 0.7-0.5 0.7-1.3v-5.1h4v5.5c0 0.5 0.3 0.9 0.7 0.9 0.4 0 0.7-0.4 0.7-1.3v-6.6h4v6.3c0 1 0.5 1.6 1.1 1.6 0.7 0 1.1-0.6 1.1-1.6v-11h4zm17.6-7.6c3.4 0 5.8 2.6 5.8 6.8 0 4.5-3 6.8-5.8 6.8-1.5 0-3.7-0.8-4.5-3.2-1.1 2.2-3.2 3.1-5.7 3.1h-4.9v-4.6h4.3c2.7 0 4.3-1.2 5-3.7 1-3.5 3.1-5.2 5.8-5.2zm1.8 6.8c0-3-4.1-3-4.1 0 0 2.9 4.1 3 4.1 0zm51.1 0.7c0 0.9 0.5 1.5 1.3 1.5q1.1 0 1.1-1.5v-7.3h4v7.8c0 4-2.6 5.6-5.2 5.6-2 0-3.6-1-4.4-2.8-1.6 2-4.3 2.7-8.8 2.7h-0.9v-4.6h3.2l-1.9-10.1h4l1.8 9.6c1.2-0.5 1.8-1.5 1.8-3.3v-8.6h4zm-27.6-10.5c1.2 0 2 0.8 2 1.9 0 1.2-0.8 2-2 2-1.3 0-2.1-0.8-2.1-2 0-1.1 0.8-1.9 2.1-1.9zm-73.4-0.1c1.2 0 2 0.7 2 1.9 0 1.1-0.8 1.9-2 1.9-1 0-1.7-0.5-2-1.2-0.2 0.7-1 1.2-1.9 1.2-1.3 0-2.1-0.8-2.1-1.9 0-1.2 0.8-1.9 2.1-1.9 1 0 1.7 0.4 1.9 1.2 0.3-0.8 1-1.2 2-1.2zm84.9-0.8c1.2 0 2.1 0.7 2.1 1.9 0 1.2-0.9 1.9-2.1 1.9-1 0-1.8-0.5-2-1.4-0.2 0.9-1 1.4-2 1.4-1.3 0-2.1-0.8-2.1-1.9 0-1.1 0.8-1.9 2.1-1.9 1.1 0 1.8 0.6 2 1.4 0.2-0.8 0.9-1.4 2-1.4z"/></svg>